

imdb : http://www.imdb.com/title/tt0110443/
Tagline: He's looking for a few good men... or a few guys old enough to shave. 
Plot: Major Benson Winifred Payne is being discharged from the Marines. Payne is a killin' machine, but the... 
Total Size : 1.28 GB

[code]General
Complete name : Major Payne 1995 DVDRip [H.264 - MP4 - AAC] ~Mindbreaker.mp4
Format : H.264/AAC/MP4 - Anamophic
Source : DVD (ripped by unknow)
File size : 1.28 GiB
Duration : 1h 33mn
Overall bit rate : 1 963 Kbps


Video
ID : 1
Format : AVC
Format/Info : Advanced Video Codec
Format profile : High@L3.0
Duration : 1h 33mn
Bit rate : 1800 Kbps
Width : 720 pixels
Height : 400 pixels
Display aspect ratio : 16:1
Frame rate : 25 fps
Bits/(Pixel*Frame) : 0.250
Stream size : 1.17 GiB (92%)
Writing library : x264 core 65

Audio
ID : 2
Format : AAC
Format/Info : Advanced Audio Codec
Format profile : LC
Duration : 1h 33mn
Bit rate : 160 Kbps
Channel(s) : 2 channels
Sampling rate : 48.0 KHz
Stream size : 106 MiB (8%)
Language : English

Subtitle
Format : SubRip
Language : Dutch & English
Source : DVD
 
http://genesis.1337x.org:1337/announce 
http://tracker.openbittorrent.com/announce[/code]
